<?xml version="1.0" encoding="iso-8859-1"?>
<!-- Generator: Adobe Illustrator 19.0.0, SVG Export Plug-In . SVG Version: 6.00 Build 0)  -->
<svg version="1.1" id="Capa_1" xmlns="http://www.w3.org/2000/svg" xmlns:xlink="http://www.w3.org/1999/xlink" x="0px" y="0px"
	 viewBox="0 0 480.624 480.624" style="enable-background:new 0 0 480.624 480.624;" xml:space="preserve">
<g>
	<g>
		<g>
			<path d="M472.604,471.824l-16-160c-0.412-4.103-3.876-7.221-8-7.2h-6.736c9.806-25.529,14.802-52.653,14.736-80
				C456.776,100.74,356.487,0.172,232.603,0C108.72-0.172,8.152,100.116,7.98,224c-0.172,123.884,100.116,224.451,224,224.623
				c17.364,0.024,34.671-1.968,51.575-5.936l-2.912,29.136c-0.442,4.396,2.764,8.318,7.16,8.76c0.266,0.027,0.533,0.04,0.8,0.04h176
				c4.418,0.022,8.018-3.542,8.04-7.96C472.645,472.383,472.632,472.103,472.604,471.824z M285.236,425.904
				c-17.186,4.472-34.873,6.73-52.632,6.72h0c-114.875,0-208-93.125-208-208s93.125-208,208-208s208,93.125,208,208
				c0.069,27.468-5.372,54.671-16,80h-8c0-22.091-17.909-40-40-40c-22.091,0-40,17.909-40,40h-32c-4.109,0-7.549,3.112-7.96,7.2
				L285.236,425.904z M400.604,304.624h-48c0-13.255,10.745-24,24-24S400.604,291.369,400.604,304.624z M297.404,464.624l14.4-144
				h24.8v16c0,4.418,3.582,8,8,8s8-3.582,8-8v-16h48v16c0,4.418,3.582,8,8,8s8-3.582,8-8v-16h24.8l14.4,144H297.404z"/>
			<path d="M322.204,194.224c0.007-0.007,0.015-0.015,0.022-0.022c3.118-3.13,3.108-8.196-0.022-11.314l-83.928-83.92
				c-3.124-3.123-8.188-3.123-11.312,0l-83.92,83.92c-0.007,0.007-0.015,0.015-0.022,0.022c-3.118,3.13-3.108,8.196,0.022,11.314
				l22.624,22.536c3.124,3.123,8.188,3.123,11.312,0l31.624-31.576v159.44c0,4.418,3.582,8,8,8h32c4.418,0,8-3.582,8-8v-159.44
				l31.664,31.576c3.124,3.123,8.188,3.123,11.312,0L322.204,194.224z M293.884,199.824l-39.632-39.584
				c-1.499-1.494-3.529-2.334-5.646-2.334c-4.418-0.001-8.001,3.58-8.002,7.998v170.72h-16v-170.72
				c-0.009-2.106-0.848-4.123-2.334-5.614c-3.119-3.129-8.185-3.137-11.314-0.018l-39.632,39.552L160.02,188.52l72.584-72.584
				l72.584,72.616L293.884,199.824z"/>
			<path d="M232.604,384.624c-88.366,0-160-71.634-160-160s71.634-160,160-160s160,71.634,160,160c0,4.418,3.582,8,8,8s8-3.582,8-8
				c0-97.202-78.798-176-176-176s-176,78.798-176,176s78.798,176,176,176c4.418,0,8-3.582,8-8S237.022,384.624,232.604,384.624z"/>
		</g>
	</g>
</g>
<g>
</g>
<g>
</g>
<g>
</g>
<g>
</g>
<g>
</g>
<g>
</g>
<g>
</g>
<g>
</g>
<g>
</g>
<g>
</g>
<g>
</g>
<g>
</g>
<g>
</g>
<g>
</g>
<g>
</g>
</svg>
